<svg width="22" height="22" viewBox="0 0 22 22" fill="none" xmlns="http://www.w3.org/2000/svg">
<path d="M16.168 0.382812H5.66827C2.78109 0.382812 0.418396 2.74551 0.418396 5.63268V16.1329C0.418396 19.0193 2.78109 21.3828 5.66827 21.3828H16.168C19.0552 21.3828 21.4179 19.0193 21.4179 16.1329V5.63268C21.4179 2.74551 19.0552 0.382812 16.168 0.382812ZM19.6678 16.1329C19.6678 18.0623 18.0984 19.6328 16.168 19.6328H5.66827C3.73868 19.6328 2.16844 18.0623 2.16844 16.1329V5.63268C2.16844 3.70284 3.73868 2.13286 5.66827 2.13286H16.168C18.0984 2.13286 19.6678 3.70284 19.6678 5.63268V16.1329Z" fill="black"/>
<path d="M16.6056 6.50726C17.3305 6.50726 17.9181 5.91965 17.9181 5.19479C17.9181 4.46994 17.3305 3.88232 16.6056 3.88232C15.8808 3.88232 15.2932 4.46994 15.2932 5.19479C15.2932 5.91965 15.8808 6.50726 16.6056 6.50726Z" fill="black"/>
<path d="M10.6673 5.63281C7.76725 5.63281 5.41742 7.9829 5.41742 10.8827C5.41742 13.7814 7.76725 16.1331 10.6673 16.1331C13.5665 16.1331 15.9172 13.7814 15.9172 10.8827C15.9172 7.9829 13.5665 5.63281 10.6673 5.63281ZM10.6673 14.383C8.73453 14.383 7.16746 12.816 7.16746 10.8827C7.16746 8.94941 8.73453 7.38286 10.6673 7.38286C12.6 7.38286 14.1671 8.94941 14.1671 10.8827C14.1671 12.816 12.6 14.383 10.6673 14.383Z" fill="black"/>
</svg>
