<svg width="20" height="16" viewBox="0 0 20 16" fill="none" xmlns="http://www.w3.org/2000/svg">
<path d="M19.8789 2.20298C19.1752 2.51166 18.4254 2.71626 17.6437 2.81561C18.4479 2.33544 19.0617 1.58088 19.3503 0.671389C18.6005 1.11845 17.7726 1.43423 16.8903 1.61045C16.1783 0.852341 15.1636 0.382812 14.0566 0.382812C11.9088 0.382812 10.1797 2.1261 10.1797 4.26323C10.1797 4.57073 10.2057 4.8664 10.2696 5.14788C7.04437 4.99058 4.19054 3.4448 2.27339 1.09006C1.93869 1.67076 1.74236 2.33544 1.74236 3.05097C1.74236 4.3945 2.43424 5.58548 3.46554 6.27499C2.84227 6.26316 2.23081 6.08221 1.71279 5.79718C1.71279 5.809 1.71279 5.82438 1.71279 5.83975C1.71279 7.72497 3.05752 9.29085 4.82091 9.65157C4.50513 9.73791 4.16097 9.7793 3.80379 9.7793C3.55543 9.7793 3.3047 9.76511 3.06934 9.71307C3.57199 11.2494 4.99831 12.3789 6.69429 12.4155C5.37441 13.448 3.69854 14.0701 1.88429 14.0701C1.56614 14.0701 1.26101 14.0559 0.955872 14.0169C2.67432 15.1251 4.71092 15.7578 6.90718 15.7578C14.0459 15.7578 17.9488 9.84435 17.9488 4.71856C17.9488 4.54707 17.9429 4.3815 17.9346 4.2171C18.7045 3.6707 19.3515 2.98828 19.8789 2.20298Z" fill="black"/>
</svg>
