<svg width="20" height="19" viewBox="0 0 20 19" fill="none" xmlns="http://www.w3.org/2000/svg">
<path d="M17.5174 0.382812H2.31742C1.27242 0.382812 0.417419 1.19281 0.417419 2.18281V16.5828C0.417419 17.5728 1.27242 18.3828 2.31742 18.3828H17.5174C18.5624 18.3828 19.4174 17.5728 19.4174 16.5828V2.18281C19.4174 1.19281 18.5624 0.382812 17.5174 0.382812ZM6.11742 15.6828H3.26742V7.58281H6.11742V15.6828ZM4.69242 6.05281C3.74242 6.05281 2.98242 5.33281 2.98242 4.43281C2.98242 3.53281 3.74242 2.81281 4.69242 2.81281C5.64242 2.81281 6.40242 3.53281 6.40242 4.43281C6.40242 5.33281 5.64242 6.05281 4.69242 6.05281ZM16.5674 15.6828H13.7174V10.9128C13.7174 10.1928 13.0524 9.56281 12.2924 9.56281C11.5324 9.56281 10.8674 10.1928 10.8674 10.9128V15.6828H8.01742V7.58281H10.8674V8.66281C11.3424 7.94281 12.3874 7.40281 13.2424 7.40281C15.0474 7.40281 16.5674 8.84281 16.5674 10.5528V15.6828Z" fill="black"/>
</svg>
